<?xml version="1.0" standalone="no"?>
<!DOCTYPE svg PUBLIC "-//W3C//DTD SVG 20010904//EN"
 "http://www.w3.org/TR/2001/REC-SVG-20010904/DTD/svg10.dtd">
<svg version="1.0" xmlns="http://www.w3.org/2000/svg"
 width="48.000000pt" height="91.000000pt" viewBox="0 0 48.000000 91.000000"
 preserveAspectRatio="xMidYMid meet">
<metadata>
Created by potrace 1.16, written by Peter Selinger 2001-2019
</metadata>
<g transform="translate(0.000000,91.000000) scale(0.100000,-0.100000)"
fill="#000000" stroke="none">
<path d="M259 887 c-34 -17 -50 -35 -71 -77 -24 -46 -28 -65 -28 -142 l0 -88
-70 0 -70 0 0 -80 0 -80 70 0 70 0 0 -205 0 -205 85 0 85 0 0 205 0 205 69 0
c80 0 81 1 81 96 l0 64 -76 0 -76 0 4 70 c5 87 17 102 92 108 l56 4 0 74 0 74
-88 0 c-73 0 -97 -4 -133 -23z"/>
</g>
</svg>
