<?xml version="1.0" standalone="no"?>
<!DOCTYPE svg PUBLIC "-//W3C//DTD SVG 20010904//EN"
 "http://www.w3.org/TR/2001/REC-SVG-20010904/DTD/svg10.dtd">
<svg version="1.0" xmlns="http://www.w3.org/2000/svg"
 width="85.000000pt" height="85.000000pt" viewBox="0 0 85.000000 85.000000"
 preserveAspectRatio="xMidYMid meet">
<metadata>
Created by potrace 1.16, written by Peter Selinger 2001-2019
</metadata>
<g transform="translate(0.000000,85.000000) scale(0.100000,-0.100000)"
fill="#000000" stroke="none">
<path d="M179 837 c-61 -23 -97 -55 -126 -115 l-28 -57 0 -235 0 -235 28 -56
c30 -62 75 -100 142 -119 27 -8 117 -10 275 -8 l235 3 47 28 c26 15 57 42 70
60 23 31 23 37 26 321 l3 289 -25 38 c-14 21 -47 51 -73 66 l-48 28 -245 2
c-183 2 -254 -1 -281 -10z m327 -202 c87 -26 154 -116 154 -208 0 -59 -41
-138 -88 -170 -147 -102 -343 3 -342 183 1 99 104 202 211 209 8 1 38 -6 65
-14z"/>
<path d="M383 554 c-97 -48 -97 -201 0 -247 97 -47 197 16 197 123 0 106 -103
170 -197 124z"/>
</g>
</svg>
