<?xml version="1.0" standalone="no"?>
<!DOCTYPE svg PUBLIC "-//W3C//DTD SVG 20010904//EN"
 "http://www.w3.org/TR/2001/REC-SVG-20010904/DTD/svg10.dtd">
<svg version="1.0" xmlns="http://www.w3.org/2000/svg"
 width="101.000000pt" height="85.000000pt" viewBox="0 0 101.000000 85.000000"
 preserveAspectRatio="xMidYMid meet">
<metadata>
Created by potrace 1.16, written by Peter Selinger 2001-2019
</metadata>
<g transform="translate(0.000000,85.000000) scale(0.100000,-0.100000)"
fill="#000000" stroke="none">
<path d="M496 675 c-253 -95 -463 -180 -467 -187 -24 -38 -6 -51 131 -96 l112
-37 43 -130 c56 -172 53 -165 84 -165 19 0 43 16 86 60 33 33 64 60 69 60 5 0
57 -36 115 -79 129 -96 152 -107 181 -83 19 15 32 70 91 362 41 207 69 369 69
407 0 62 0 63 -27 63 -16 -1 -235 -79 -487 -175z m297 -27 c-26 -25 -122 -112
-213 -193 l-165 -149 -10 -84 -10 -85 -39 117 c-21 65 -34 122 -30 126 20 18
508 320 511 316 3 -2 -17 -24 -44 -48z"/>
</g>
</svg>
