<?xml version="1.0" standalone="no"?>
<!DOCTYPE svg PUBLIC "-//W3C//DTD SVG 20010904//EN"
 "http://www.w3.org/TR/2001/REC-SVG-20010904/DTD/svg10.dtd">
<svg version="1.0" xmlns="http://www.w3.org/2000/svg"
 width="111.000000pt" height="66.000000pt" viewBox="0 0 111.000000 66.000000"
 preserveAspectRatio="xMidYMid meet">

<g transform="translate(0.000000,66.000000) scale(0.100000,-0.100000)"
fill="#000000" stroke="none">
<path d="M425 653 c-11 -3 -28 -12 -38 -21 -16 -14 -16 -16 5 -26 35 -18 48
-54 48 -138 0 -189 -56 -171 -165 53 -25 51 -51 96 -58 101 -14 9 -168 11
-191 2 -27 -10 -19 -41 43 -168 120 -244 234 -383 349 -426 62 -24 189 -37
211 -22 7 6 17 33 22 62 16 100 46 104 121 19 71 -81 88 -89 201 -89 77 0 99
3 117 18 l22 18 -21 41 c-11 23 -52 73 -91 113 -49 50 -70 79 -70 96 0 15 28
65 70 123 38 54 79 120 91 146 21 47 21 49 3 62 -12 9 -52 13 -126 13 l-108 0
-39 -84 c-71 -154 -137 -234 -162 -195 -5 8 -9 73 -9 145 0 108 -3 134 -16
145 -16 13 -171 23 -209 12z"/>
</g>
</svg>
