<?xml version="1.0" standalone="no"?>
<!DOCTYPE svg PUBLIC "-//W3C//DTD SVG 20010904//EN"
 "http://www.w3.org/TR/2001/REC-SVG-20010904/DTD/svg10.dtd">
<svg version="1.0" xmlns="http://www.w3.org/2000/svg"
 width="108.000000pt" height="72.000000pt" viewBox="0 0 108.000000 72.000000"
 preserveAspectRatio="xMidYMid meet">
<metadata>
Created by potrace 1.16, written by Peter Selinger 2001-2019
</metadata>
<g transform="translate(0.000000,72.000000) scale(0.100000,-0.100000)"
fill="#000000" stroke="none">
<path d="M85 700 c-62 -40 -65 -58 -65 -335 0 -281 4 -300 71 -340 32 -19 55
-20 446 -23 437 -3 470 0 517 43 l26 24 0 294 0 295 -35 31 -36 31 -447 0
c-428 0 -448 -1 -477 -20z m523 -255 l120 -80 -124 -82 c-68 -46 -126 -83
-129 -83 -3 0 -5 75 -5 166 0 91 4 164 9 162 5 -1 63 -39 129 -83z"/>
</g>
</svg>
